inDegrees=yes
name=ik_S56_A03_T01
DataType=double
version=3
OpenSimVersion=4.3-2021-08-27-4bc7ad9
endheader
time	pelvis_tilt	pelvis_list	pelvis_rotation	pelvis_tx	pelvis_ty	pelvis_tz	hip_flexion_r	hip_adduction_r	hip_rotation_r	knee_angle_r	knee_angle_r_beta	ankle_angle_r	subtalar_angle_r	mtp_angle_r	hip_flexion_l	hip_adduction_l	hip_rotation_l	knee_angle_l	knee_angle_l_beta	ankle_angle_l	subtalar_angle_l	mtp_angle_l	lumbar_extension	lumbar_bending	lumbar_rotation	arm_flex_r	arm_add_r	arm_rot_r	elbow_flex_r	pro_sup_r	wrist_flex_r	wrist_dev_r	arm_flex_l	arm_add_l	arm_rot_l	elbow_flex_l	pro_sup_l	wrist_flex_l	wrist_dev_l
8.779999999999902	-2.069027880954661	0.2339409736144301	99.50941588711737	0	0.9399999999999999	0	18.2130270677382	2.35900910866729	-5.769740197978847	-8.216171729724092	-0.143399248592963	0	0	0	-13.25600629250513	5.268553435093946	3.367199384600321	9.410248516408076	0.1642398200422326	0	0	0	0	0	0	31.00469487474849	-31.00469487474849	4.320131716326464	75.56489216254683	85.6798685258893	0	0	31.00469487474849	-31.00469487474849	4.320131716326464	75.56489216254683	85.67986852576213	0	0
8.799999999999901	-2.209952867301186	0.5019573415262365	99.45860723090263	0	0.9399999999999999	0	18.34669567557292	2.762904481487156	-5.354871217222446	-5.286199969634757	-0.09226159438895078	0	0	0	-14.26251644556685	5.182372502438881	3.281930201493277	10.24902938761248	0.1788793079474959	0	0	0	0	0	0	31.01294150906173	-31.01294150906173	4.320929503983118	75.57607221270646	85.67907073827419	0	0	31.01294150906173	-31.01294150906173	4.320929503983118	75.57607221270646	85.67907073814713	0	0
8.819999999999901	-2.193718444553255	0.5210360295345015	99.45045468015731	0	0.9399999999999999	0	18.17533487818222	3.159109164221557	-5.195109732824397	-5.888111765327026	-0.1027669370303723	0	0	0	-14.29322805933363	5.06529480863741	3.208482989596906	11.10465192551067	0.1938127383880893	0	0	0	0	0	0	31.01519212605239	-31.01519212605239	4.321146488285807	75.57911268481561	85.67885375398276	0	0	31.01519212605239	-31.01519212605239	4.321146488285807	75.57911268481561	85.67885375385573	0	0
8.8399999999999	-2.400866982220298	0.6186144291885369	99.69058998168619	0	0.9399999999999999	0	17.57137056137075	3.179391815111576	-4.988941314966792	-3.5279525018385	-0.06157438701105312	0	0	0	-15.57462380114951	4.676081007403969	3.054524013211926	12.39380841137347	0.2163127636398349	0	0	0	0	0	0	31.09919301375641	-31.09919301375641	4.328064770670512	75.67557474981012	85.67193547194897	0	0	31.09919301375641	-31.09919301375641	4.328064770670512	75.67557474981012	85.67193547182328	0	0
8.8599999999999	-1.943590884882802	0.3014920614015802	100.6553151072012	0	0.9399999999999999	0	17.53476582637094	2.903115017126031	-5.406428222052822	-0.4143758031395272	-0.007232222105380606	0	0	0	-15.4729265726739	3.568438233037123	3.815108406876424	15.16132951180862	0.264615118960845	0	0	0	0	0	0	31.10582065147075	-31.10582065147075	4.328702358219887	75.68450700067504	85.67129788443276	0	0	31.10582065147075	-31.10582065147075	4.328702358219887	75.68450700067504	85.67129788430714	0	0
8.8799999999999	-1.520467582378692	0.2315827468030138	100.7227071597211	0	0.9399999999999999	0	17.06609044397689	2.989672675213259	-5.239424332247308	1.054518752109038	0.01840482424832461	0	0	0	-15.26850197164673	2.801456302515208	3.927628605463311	20.18969297660394	0.3523766174085132	0	0	0	0	0	0	31.11215904540058	-31.11215904540058	4.329310263017201	75.69302256951433	85.67068997966713	0	0	31.11215904540058	-31.11215904540058	4.329310263017201	75.69302256951433	85.67068997954163	0	0
8.899999999999899	-0.03882223730634877	0.2106413498714001	100.1637945160133	0	0.9399999999999999	0	17.76260312220895	4.72784149543706	-4.66276151344408	3.7482794416787	0.06541981754210809	0	0	0	-13.92514211519121	1.043140737275407	3.055662373143807	22.63365119913007	0.3950317351727824	0	0	0	0	0	0	31.1178509028086	-31.1178509028086	4.329849058312417	75.70056708746382	85.67015118439984	0	0	31.1178509028086	-31.1178509028086	4.329849058312417	75.70056708746382	85.6701511842744	0	0
8.919999999999899	-0.04316305193772098	0.2263951241460999	100.1741798995595	0	0.9399999999999999	0	17.43585886994872	4.815136728838213	-0.5542148262539647	4.921513513014166	0.08589661498348999	0	0	0	-12.60552857013907	0.435013141110241	2.481451248180198	27.0191359837049	0.4715728839597275	0	0	0	0	0	0	31.17444729277754	-31.17444729277754	4.334552691126028	75.76616908129388	85.66544755182518	0	0	31.17444729277754	-31.17444729277754	4.334552691126028	75.76616908129388	85.66544755170059	0	0
8.939999999999898	1.049501286089787	0.7520039852593772	99.41090625137794	0	0.9399999999999999	0	16.08742452976836	5.461422346089585	2.808402790864434	6.166082581522483	0.107618442997439	0	0	0	-11.15268952847289	-1.345523317474297	0.3387937043983976	32.42641262969732	0.5659476649984911	0	0	0	0	0	0	31.25590589944074	-31.25590589944074	4.341297662617034	75.86022830021021	85.65870258067656	0	0	31.25590589944074	-31.25590589944074	4.341297662617034	75.86022830021021	85.65870258055324	0	0
8.959999999999898	1.504059529498039	1.24691280464728	99.27846201500238	0	0.9399999999999999	0	15.23903448793186	6.466563431145816	1.43599680876628	8.271302184623988	0.1443614565490885	0	0	0	-9.142472483163269	-2.693496024238498	-0.003801400050618561	40.00735175959926	0.698260013208554	0	0	0	0	0	0	31.2644200774538	-31.2644200774538	4.342107241469747	75.87156345182579	85.65789300186577	0	0	31.2644200774538	-31.2644200774538	4.342107241469747	75.87156345182579	85.65789300174274	0	0
8.979999999999897	1.878416710803557	1.615035058359966	99.62610854885558	0	0.9399999999999999	0	14.55446358456356	7.75855156894261	-1.573856734085535	9.115659786485335	0.1590982767658124	0	0	0	-6.769337505716603	-3.609947973177714	0.07760326956469034	42.80509071793359	0.7470897696428045	0	0	0	0	0	0	31.35118125393026	-31.35118125393026	4.349168237001258	75.96997431107036	85.6508320066916	0	0	31.35118125393026	-31.35118125393026	4.349168237001258	75.96997431107036	85.65083200656998	0	0
8.999999999999897	2.085486385027043	1.714444605890463	99.92033737435274	0	0.9399999999999999	0	13.50042532259245	7.079767941476191	-3.244470801925655	9.599699727751497	0.1675463674520669	0	0	0	-4.037830362407091	-4.295693957874373	1.082357943235255	51.31431261802388	0.8956037085821881	0	0	0	0	0	0	31.51177465120251	-31.51177465120251	4.362143550135824	76.15077002581599	85.63785669421287	0	0	31.51177465120251	-31.51177465120251	4.362143550135824	76.15077002581599	85.63785669409371	0	0
9.019999999999897	2.778597911847915	1.723344068097219	101.0127847339228	0	0.9399999999999999	0	12.65940184078896	7.388178510947361	-4.636275254954013	9.329269466903483	0.1628264690032419	0	0	0	-1.32063756654692	-5.764386196414029	1.025952925082231	56.41978372265097	0.9847109892233626	0	0	0	0	0	0	31.59981238818131	-31.59981238818131	4.369231676349119	76.24952344455313	85.63076856835765	0	0	31.59981238818131	-31.59981238818131	4.369231676349119	76.24952344455313	85.6307685682398	0	0
9.039999999999896	3.097887862049154	1.42765093485806	101.6798407131586	0	0.9399999999999999	0	13.07079213629543	7.495026810524878	-5.566181087233018	10.03879387264324	0.1752100060066569	0	0	0	-0.9167378490879762	-6.53849024031314	1.429500919250477	58.60000800357425	1.0227630813574	0	0	0	0	0	0	31.60296764657723	-31.60296764657723	4.369527148683152	76.25365680470541	85.63047309603888	0	0	31.60296764657723	-31.60296764657723	4.369527148683152	76.25365680470541	85.63047309592108	0	0
9.059999999999896	3.062345195393864	1.078730422093024	102.3366515222513	0	0.9399999999999999	0	11.25092462113575	8.223770292221138	-4.959313839235075	8.521516598365576	0.1487285219048265	0	0	0	3.968063305766179	-7.773234369758126	-0.2735499799885082	64.48797738511715	1.125527533321937	0	0	0	0	0	0	31.64688680487297	-31.64688680487297	4.373087121084271	76.30326462728809	85.6269131238178	0	0	31.64688680487297	-31.64688680487297	4.373087121084271	76.30326462728809	85.62691312370063	0	0
9.079999999999895	2.807479040520089	0.9103572523379131	102.4352028015927	0	0.9399999999999999	0	10.38169621307047	8.136361793973181	-4.64047166542528	9.398308544225861	0.1640314282150564	0	0	0	6.17411445803388	-7.618299525719539	-0.7444139010757788	67.5856682753539	1.179592438565603	0	0	0	0	0	0	31.71775427405665	-31.71775427405665	4.378745439405958	76.38207709601487	85.62125480578148	0	0	31.71775427405665	-31.71775427405665	4.378745439405958	76.38207709601487	85.62125480566536	0	0
9.099999999999895	2.485078934573924	0.7253462684745334	102.4703772405231	0	0.9399999999999999	0	9.697893876098179	8.125826591420351	-5.721519442605582	9.250401479690941	0.1614499629519623	0	0	0	6.279906074252981	-7.254126696445989	-0.7528259134925325	67.58691276706577	1.179614159043489	0	0	0	0	0	0	31.71895285798047	-31.71895285798047	4.378857053549413	76.38363799332379	85.6211431916438	0	0	31.71895285798047	-31.71895285798047	4.378857053549413	76.38363799332379	85.62114319152769	0	0
9.119999999999894	2.110141875895701	0.5969738198681938	102.507170845653	0	0.9399999999999999	0	8.951149623712983	8.19657353592131	-7.390868698778021	8.662190591740325	0.1511837462611446	0	0	0	12.20722860550033	-7.81128176660616	-0.9379089200871217	71.79862181101296	1.25312234899639	0	0	0	0	0	0	31.81833751979278	-31.81833751979278	4.386715627709574	76.49306513981921	85.6132846178793	0	0	31.81833751979278	-31.81833751979278	4.386715627709574	76.49306513981921	85.61328461776465	0	0
9.139999999999894	1.716223773030974	0.6149032263502596	102.5310825274079	0	0.9399999999999999	0	8.004541224343008	8.192188602041222	-7.448568250430802	7.540123304140975	0.1315999776636138	0	0	0	12.09216511163377	-7.488378477644359	-1.236694034935021	70.68363193049413	1.233662104454918	0	0	0	0	0	0	31.82107118160615	-31.82107118160615	4.386967630496443	76.49658801670537	85.61303261510545	0	0	31.82107118160615	-31.82107118160615	4.386967630496443	76.49658801670537	85.61303261499084	0	0
9.159999999999894	1.297822713633058	0.7507014427390716	102.459544836615	0	0.9399999999999999	0	6.80167649553348	8.287280783848439	-6.972999088281285	6.479163844350069	0.1130827418600821	0	0	0	13.46951766294667	-6.836738402871364	-1.011499175934611	68.19686317224085	1.190259801887668	0	0	0	0	0	0	31.8587259241858	-31.8587259241858	4.389958777862671	76.53824260071069	85.61004146788986	0	0	31.8587259241858	-31.8587259241858	4.389958777862671	76.53824260071069	85.61004146777582	0	0
